<?xml version="1.0" encoding="utf-8"?>
<!-- Generator: Adobe Illustrator 25.0.0, SVG Export Plug-In . SVG Version: 6.00 Build 0)  -->
<svg version="1.1" id="Layer_2" xmlns="http://www.w3.org/2000/svg" xmlns:xlink="http://www.w3.org/1999/xlink" x="0px" y="0px"
	 viewBox="0 0 425.3 500" style="enable-background:new 0 0 425.3 500;" xml:space="preserve">
<style type="text/css">
	.st0{fill:#020000;}
</style>
<path class="st0" d="M416.5,446.9c-2.9-26.3-5.2-46.2-12.2-66.2c-5.5-15.8-17.8-42.8-47.7-70.3c-16.6-15.3-34.3-29.9-50.6-42.1
	c-9.1-6.8-16.9-12.3-22.4-16.1c-9.5-6.5-19.1-12.9-28.6-19.4l-15.3,56l-19.9-78.3c-10.1-6.5-21.4-14-36.9-25.1
	c-0.7-0.5-1.4-1-2.1-1.5c-25.5-18.3-41.5-30-61.8-49.2c-16.3-15.4-37.1-35.4-56.9-66.7C46.8,43.8,37.6,21.5,32,5.2
	c-7,15.3-15.3,37.1-20.7,64.2c-10,50.1-4.5,90.3-1.6,106.5c3.4,19.5,10.3,56.8,36.2,97.1c2.8,4.4,12.7,19.4,30.1,37.4
	c5.1,5.3,17.7,17.9,36.1,31.3c38.5,28,75,39.2,82.7,41.5c8.8,2.6,48.1,14.2,92,13.8c5.9-0.1,24.1-0.5,46.3,5.7
	c18.2,5.1,26.8,11.1,28.9,12.6c9.1,6.6,14.9,13.4,24.4,27.6c9.9,14.9,21.2,32.3,33.3,52C419.4,483.2,418.7,466.6,416.5,446.9z
	 M353.1,370.5c-9.7-3.5-18-2.9-24.1-2.4c-14.9,1.2-30.8,2.2-49.6,3.4c-12.8,0.8-23.7,0.3-32.1-0.6c-12.4-1.3-21.6-3.4-24.4-4.1
	c-5.9-1.4-13.4-3.6-21.8-6.8c-15.6-5.9-26.7-12.6-30.9-15.2c-19.4-12-33.4-26.5-42.4-37.2c-7.3-9.4-15.3-21-22.9-35
	c-6.5-12.2-11.4-23.7-14.9-33.8c6.9,2.5,13.8,5,20.6,7.6c5.3,1.6,10.6,3.3,15.9,4.9c12.5,2.4,20.7,6,26.3,9.9c0,0,0.1,0,0.1,0
	c7.8,5.4,11.9,12.3,13.8,15.6c7.5,13.1,5.3,22.7,7.7,33.6c2.3,10.1,9.1,23.8,29.9,37.9l10.3-37.9l11.9,46.6
	c4.3,0.9,8.7,1.3,13.2,1.3c3.9,0,7.7-0.3,11.3-1l12.8-47l0-0.1l0,0.1l9.8,38.7c11.9-5.9,17.4-12.7,20.3-18c1.9-3.5,3.1-7.4,7.4-10.6
	c5.7-4.3,12.6-4.2,13.9-4.1c3.3,0.1,8.8,1.2,25.6,18.2c11.9,12,17.9,18.2,22.9,29c3.1,6.8,4.7,12.9,5.5,17.1
	C365.9,377.5,360.6,373.2,353.1,370.5z"/>
</svg>
